<svg xmlns="http://www.w3.org/2000/svg" xmlns:xlink="http://www.w3.org/1999/xlink" width="650" height="200" viewBox="0 0 650 200">
  <defs>
    <linearGradient id="linear-gradient" x1="-0.052" y1="-0.044" x2="0.421" y2="0.656" gradientUnits="objectBoundingBox">
      <stop offset="0" stop-color="#004e9c"/>
      <stop offset="1" stop-color="#023693"/>
    </linearGradient>
    <linearGradient id="linear-gradient-2" x1="-5.302" y1="-0.423" x2="2.413" y2="0.779" xlink:href="#linear-gradient"/>
    <linearGradient id="linear-gradient-3" x1="0.13" y1="-19.26" x2="0.476" y2="-0.799" xlink:href="#linear-gradient"/>
    <linearGradient id="linear-gradient-4" x1="0.282" y1="-0.171" x2="0.707" y2="1.146" xlink:href="#linear-gradient"/>
    <linearGradient id="linear-gradient-5" x1="-1.567" y1="-104.588" x2="-0.171" y2="-33.652" xlink:href="#linear-gradient"/>
    <linearGradient id="linear-gradient-6" x1="0.099" y1="-0.256" x2="0.894" y2="0.689" xlink:href="#linear-gradient"/>
    <linearGradient id="linear-gradient-7" x1="-0.287" y1="-1.857" x2="0.437" y2="0.311" xlink:href="#linear-gradient"/>
    <linearGradient id="linear-gradient-8" x1="-1.07" y1="0.066" x2="2.069" y2="0.933" xlink:href="#linear-gradient"/>
    <linearGradient id="linear-gradient-9" x1="0.046" y1="0.071" x2="0.712" y2="1.041" xlink:href="#linear-gradient"/>
    <linearGradient id="linear-gradient-10" x1="0.27" y1="0.057" x2="0.739" y2="1.063" xlink:href="#linear-gradient"/>
    <linearGradient id="linear-gradient-11" x1="0.358" y1="0.244" x2="0.667" y2="0.764" xlink:href="#linear-gradient"/>
    <linearGradient id="linear-gradient-12" x1="0.337" y1="0.239" x2="0.663" y2="0.761" xlink:href="#linear-gradient"/>
    <linearGradient id="linear-gradient-13" x1="-2.549" y1="0.163" x2="4.317" y2="0.941" xlink:href="#linear-gradient"/>
  </defs>
  <g id="fingertip_logo" transform="translate(-549.971 -417.969)">
    <rect id="Rectangle_2285" data-name="Rectangle 2285" width="650" height="200" transform="translate(549.971 417.969)" fill="#fff" opacity="0"/>
    <g id="Group_4592" data-name="Group 4592">
      <path id="Path_17411" data-name="Path 17411" d="M600.78,492.709c1.75-9.653,7.237-17.307,15.246-23.058a16.144,16.144,0,0,1,2.309-1.449c2.185-1.051,4.32-1.038,5.7,1.2,1.33,2.155.678,4.09-1.254,5.7a68.525,68.525,0,0,0-7.654,6.729,26.739,26.739,0,0,0-6.949,18.39c.058,8.54-.01,17.076.019,25.612.066,18.558,15.66,36.165,34.027,38.919a43.391,43.391,0,0,0,24.92-3.468c3.284-1.477,5.623-.9,6.75,1.517,1.137,2.431.086,4.326-3.337,6.021-28.717,14.239-64.728-4.088-69.939-35.654a81.537,81.537,0,0,1-.788-10.17C599.7,519.586,599.593,499.252,600.78,492.709Z" fill-rule="evenodd" fill="url(#linear-gradient)"/>
      <path id="Path_17412" data-name="Path 17412" d="M698.851,499.779c-.012-.225-.024-.438-.049-.651l.012-.012C698.827,499.329,698.839,499.554,698.851,499.779Z" fill-rule="evenodd" fill="url(#linear-gradient-2)"/>
      <path id="Path_17413" data-name="Path 17413" d="M649.145,595.452v.037h-.938Z" fill-rule="evenodd" fill="url(#linear-gradient-3)"/>
      <path id="Path_17414" data-name="Path 17414" d="M657.759,594.288a34.235,34.235,0,0,1-8.614,1.164l-.938.037c-1.589-.012-3.2-.075-4.829-.188a73.619,73.619,0,0,1-35.383-12.01c-1.287-.851-2.564-1.752-3.827-2.69a1.281,1.281,0,0,1-.138-.113,71.836,71.836,0,0,1-23.445-33.968,12.034,12.034,0,0,1-.514-1.976c-.338-2.378.176-4.429,2.8-5.067,2.477-.588,4.1.588,5.018,2.952,1.363,3.479,2.6,7.031,4.265,10.385A62.184,62.184,0,0,0,608.81,573.72c0,.012.011.012.024.012A63.727,63.727,0,0,0,642.6,586.519a64.994,64.994,0,0,0,13.575-.813c3.541-.614,5.666.512,6.168,3.139S661.413,593.137,657.759,594.288Z" fill-rule="evenodd" fill="url(#linear-gradient-4)"/>
      <path id="Path_17415" data-name="Path 17415" d="M648.207,595.489a43.061,43.061,0,0,1-4.8-.162l-.025-.026C645,595.414,646.618,595.477,648.207,595.489Z" fill-rule="evenodd" fill="url(#linear-gradient-5)"/>
      <path id="Path_17416" data-name="Path 17416" d="M676,500.633c.145-6.553-.958-13.322-4.244-18.9-7.307-12.415-18.7-18.474-33.233-18.886-2.669-.075-4.427,1.088-4.489,3.951-.058,2.818,1.648,4.061,4.257,4.325.451.046.911.013,1.365.035a29.6,29.6,0,0,1,27.95,29c.03,8.085-.225,16.172-.019,24.256a26.747,26.747,0,0,1-.662,7.085c-1.192,5.288,4.6,7.63,6.518,4.084a13.422,13.422,0,0,0,1.625-5C676.308,524.291,675.919,504.391,676,500.633Z" fill-rule="evenodd" fill="url(#linear-gradient-6)"/>
      <path id="Path_17417" data-name="Path 17417" d="M607.995,583.291a9.457,9.457,0,0,1-2.313-1.489c-.513-.4-1.013-.8-1.514-1.2C605.431,581.539,606.708,582.44,607.995,583.291Z" fill-rule="evenodd" fill="url(#linear-gradient-7)"/>
      <rect id="Rectangle_1919" data-name="Rectangle 1919" width="0.05" height="0.38" transform="translate(648.4 520.878)" fill="url(#linear-gradient-8)"/>
      <path id="Path_17418" data-name="Path 17418" d="M664.851,547.458a15.406,15.406,0,0,1-24.68-12.06c-.061-4.1-.021-13.7-.021-14.09-3.479.02-7.1.04-10.219.04.019,3.86.029,7.76.029,11.79-.01,1.58-.4,4.83-3.989,4.83a4.127,4.127,0,0,1-4.25-4.26c-.091-2-.071-6.37-.13-8.27-.151-4.09-.051-8.19-.051-12.3s-.049-8.2.011-12.3a15.707,15.707,0,0,1,11-14.52c6.61-1.91,14.479,1.6,15.559,8.34a12.776,12.776,0,0,1,.29,2.37v.5a20.151,20.151,0,0,1-.12,2.08,1.594,1.594,0,0,1-.059.3,3.593,3.593,0,0,1-3.79,3.04,4.081,4.081,0,0,1-4.25-4.26c-.051-1.92-.01-1.2-.01-1.49v-.08c-.041-1.69-2.271-3.16-5.541-2.62-3.409.56-4.809,3.29-4.76,6.77,0,3.94.01,7.76.021,11.55,3.129.02,6.77.04,10.25.05v-.12c.009-1.59.6-4.83,3.989-4.83a4.127,4.127,0,0,1,4.25,4.26c.011.19.02.44.02.73,1.54.01,2.851.02,3.81.03,2.67.03,4.81.62,5.2,3.66.319,2.45-1.66,4.65-4.77,4.65-1.05,0-2.5,0-4.191.01h0c0,4.45.041,6.77.041,13.71a6.78,6.78,0,0,0,5.06,6.89,7.643,7.643,0,0,0,6.639-1.05,3.727,3.727,0,0,1,4.77.62C667.261,543.938,666.241,546.408,664.851,547.458Z" fill-rule="evenodd" fill="url(#linear-gradient-9)"/>
      <path id="Path_17419" data-name="Path 17419" d="M699.265,523a83.357,83.357,0,0,1-.789,10.172,46.423,46.423,0,0,1-7.969,19.342c-.013.013-.013.025-.038.038a24.548,24.548,0,0,0-2.1,2.765,34.141,34.141,0,0,1-2.577,3.478,4.518,4.518,0,0,1-6.844.113c-1.989-2.327-.875-4.217.764-6.319.463-.6,2.765-3.515,2.777-3.565a46.43,46.43,0,0,0,8.408-23.2c.45-8.482-.226-16.915-.163-25.41a52.647,52.647,0,0,0-3.753-18.241c-8.47-20.118-23.4-31.6-45.353-33.63-28.988-2.665-53.91,20.293-55.912,47.155-.676,8.945-.5,17.953-.625,26.936-.026,2.678-.613,4.8-3.654,5.2-2.452.325-4.654-1.664-4.654-4.779.013-12.035-.789-24.109,1.839-36.032,5.592-25.46,28.726-45.077,54.7-46.891,32.016-2.24,60.328,19.967,64.771,52.321.3,2.189.55,4.4.713,6.668.025.213.037.426.049.651.05.976.1,1.989.138,3.028C699.327,511,699.352,520.723,699.265,523Z" fill-rule="evenodd" fill="url(#linear-gradient-10)"/>
      <path id="Path_17420" data-name="Path 17420" d="M681.036,550.874c.1-.125.2-.238.3-.363-.1.125-.187.251-.287.376Z" fill-rule="evenodd" fill="url(#linear-gradient-11)"/>
      <path id="Path_17421" data-name="Path 17421" d="M690.469,552.551c-.662.951-1.365,1.877-2.1,2.765A24.548,24.548,0,0,1,690.469,552.551Z" fill-rule="evenodd" fill="url(#linear-gradient-12)"/>
      <path id="Path_17422" data-name="Path 17422" d="M699.014,502.807h-.025c-.037-1.039-.088-2.052-.138-3.028C698.927,500.78,698.977,501.781,699.014,502.807Z" fill-rule="evenodd" fill="url(#linear-gradient-13)"/>
    </g>
    <text id="Fingertip" transform="translate(719.265 539.327)" fill="#333" font-size="100" font-family="ExpletusSans-Bold, Expletus Sans" font-weight="700" letter-spacing="0.025em"><tspan x="0" y="0">Fingertip</tspan></text>
    <text id="Commerce_Cash_Flows_Cards_Eco-System" data-name="Commerce, Cash Flows &amp; Cards Eco-System" transform="translate(670.768 596.968)" fill="#333" font-size="25" font-family="ExpletusSans-Regular, Expletus Sans"><tspan x="0" y="0">Commerce, Cash Flows &amp; Cards Eco-System</tspan></text>
  </g>
</svg>
