<svg xmlns="http://www.w3.org/2000/svg" width="320.952" height="67.557" viewBox="0 0 320.952 67.557">
  <g id="NB_Bytes_Logo" transform="translate(0 0)">
    <path id="Path_3" data-name="Path 3" d="M46.929,42.768A152.6,152.6,0,0,0,31.536,57.942c-2.928,3.132-5.966,3.946-11.134,2.85,4.808-4.526,9.145-8.456,13.3-12.528,3.132-3.132,6.5-5.841,8.973-9.49,1.566-1.143,3.4-2.1,3.586-4.7a6.546,6.546,0,0,0-4.494,3.508c-5.027,3.649-8.864,8.55-13.342,12.779a73.164,73.164,0,0,0-7.579,7.579c-2.709,3.461-5.982,3.79-10.743,2.85,5.121-5,9.819-9.521,14.454-14.094,3.57-3.508,7.125-7.063,10.617-10.664.846-.877,2.224-1.472,2.1-3.038A6.828,6.828,0,0,0,41.2,28.971c-2.85-.141-3.852,1.566-4.7,3.351-1.566.2-2.3,1.566-3.273,2.521-7.72,7.658-15.5,15.143-22.864,23.1a9.4,9.4,0,0,1-9.8,3.132c0-1.425,1.19-1.942,1.958-2.709q13.546-13.687,27.17-27.327c.893-.893,2.036-1.566,2.286-2.991a6.123,6.123,0,0,0,3.367-3.884c1.175.172,1.942-.219,2.036-1.566a10.069,10.069,0,0,0,3.68-3.617c1.018,0,1.378-.8,1.566-1.66a6.718,6.718,0,0,0,3.4-3.805c1.143,0,1.895-.36,1.958-1.566A6.468,6.468,0,0,0,51.361,8.3a11.087,11.087,0,0,1-.752,9.709,7.11,7.11,0,0,0-4.072,5.356,4.479,4.479,0,0,0-4.416,3.383c0,.2.47.846.611.8a5.309,5.309,0,0,0,3.68-3.805,3.413,3.413,0,0,1,.141-.36c2.239-.673,3.57-2.537,5.183-4.009.282,3.132.908,6.421-1.128,9.4-1.566,1.081-3.492,1.911-3.038,4.6,2.02-.485,2.819-2.255,4.244-3.132.3,3.132.517,6.374-1.034,9.4a5.685,5.685,0,0,0-3.852,3.132Z" transform="translate(0.317 4.698)" fill="#295285"/>
    <path id="Path_4" data-name="Path 4" d="M40.5,29.06A10.492,10.492,0,0,1,36.33,40.507a26.325,26.325,0,0,0-4.9,4.886c-2.694,3.461-5.919,5.168-10.868,3.7,2.9-2.9,5.794-5.732,8.519-8.691s5.966-4.823,7.6-8.441C38.365,31.566,39.164,29.953,40.5,29.06Z" transform="translate(11.637 16.448)" fill="#295285"/>
    <path id="Path_5" data-name="Path 5" d="M35.658,28.749a6.123,6.123,0,0,1-3.367,3.884L0,.5C4.7-.488,7.83.232,10.79,3.458,18.792,12.1,27.342,20.308,35.658,28.749Z" transform="translate(0 0.05)" fill="#080908"/>
    <path id="Path_6" data-name="Path 6" d="M37.191,23.622a10.069,10.069,0,0,1-3.68,3.617L7.39.4c3.132-.5,6.029-.83,8.879,2.192C23.05,9.778,30.269,16.637,37.191,23.622Z" transform="translate(4.183 0.04)" fill="#080908"/>
    <path id="Path_7" data-name="Path 7" d="M38.53,18.158a6.718,6.718,0,0,1-3.4,3.805L13.85.384c3.805-.6,6.953-.658,9.881,2.662C28.382,8.323,33.566,13.147,38.53,18.158Z" transform="translate(7.839 0.039)" fill="#080908"/>
    <path id="Path_8" data-name="Path 8" d="M39.849,13a6.468,6.468,0,0,1-3.336,3.586L20.9.36c4.166-1.018,7.47.078,10.32,3.9A83.922,83.922,0,0,0,39.849,13Z" transform="translate(11.829 0)" fill="#080908"/>
    <path id="Path_9" data-name="Path 9" d="M35.1,15.857c-1.566,1.472-2.944,3.336-5.183,4.009h0a7.11,7.11,0,0,1,4.072-5.356Z" transform="translate(16.935 8.212)" fill="#080908"/>
    <path id="Path_10" data-name="Path 10" d="M35.056,29.541c-1.331.893-2.13,2.506-3.852,2.9L30.17,31.5a5.685,5.685,0,0,1,3.837-3.289C34.351,28.648,34.7,29.1,35.056,29.541Z" transform="translate(17.076 15.967)" fill="#080908"/>
    <path id="Path_11" data-name="Path 11" d="M26.87,28.3a6.546,6.546,0,0,1,4.494-3.6c-.188,2.662-2.02,3.617-3.586,4.7Z" transform="translate(15.208 13.98)" fill="#080908"/>
    <path id="Path_12" data-name="Path 12" d="M34.838,22.772c-1.425.924-2.224,2.694-4.244,3.132-.454-2.694,1.472-3.524,3.038-4.6Z" transform="translate(17.278 12.056)" fill="#080908"/>
    <path id="Path_13" data-name="Path 13" d="M23.47,24.884c.908-1.817,1.911-3.492,4.7-3.351A6.828,6.828,0,0,1,24.3,25.558,9.814,9.814,0,0,1,23.47,24.884Z" transform="translate(13.284 12.183)" fill="#080908"/>
    <path id="Path_14" data-name="Path 14" d="M31.524,17.936a3.415,3.415,0,0,0-.141.36A5.309,5.309,0,0,1,27.7,22.1c-.141,0-.673-.6-.611-.8a4.479,4.479,0,0,1,4.416-3.383Z" transform="translate(15.331 10.142)" fill="#080908"/>
    <path id="Path_15" data-name="Path 15" d="M32.74,64.817c7.83-6.013,8.785-12.857,8.644-20.264-.266-12.841,0-25.682-.313-38.508C40.977,1.316,42.543.031,47.1.313c7.172.329,14.392.266,21.564,0,3.633-.157,5.857.877,7.6,4.353A451.674,451.674,0,0,0,98.825,45.383V26.591c.094-9.866-1.081-8.253,8.519-8.362,10.727-.141,10.727,0,10.727,10.524s-.094,21.188,0,31.774c0,3.132-.767,4.353-4.119,4.275-8.409-.2-16.85-.219-25.26,0-3.132.094-4.26-1.566-5.434-3.837C77.606,49.956,71.859,38.9,66.143,27.922a29.6,29.6,0,0,0-6.092-8.66c0,12.888-.282,25.792.157,38.665.172,5.606-1.378,7.517-7.078,7.016C47.053,64.347,40.977,64.817,32.74,64.817Z" transform="translate(18.531 0.156)" fill="#295285"/>
    <path id="Path_16" data-name="Path 16" d="M144.752,31.412c7.157-4.7,9.4-10.962,7.376-19.92C150.766,5.573,146.193,1.94,138.6.969a48.029,48.029,0,0,0-6.7-.611C114.67.358,97.318.609,80.218.2c-7.517-.172-4.7,4.7-5.2,8.222-.485,4.025-.2,6.749,5.559,6.577,15.175-.47,30.4-.125,45.6-.172,3.79,0,6.593,1.159,6.656,5.371s-2.568,5.559-6.452,5.559h-19.81c-9.192,0-9.02,0-8.864,9.208,0,3.132.877,4.244,4.181,4.166,8.409-.219,16.835,0,25.244-.11,4.072,0,7.736.392,7.642,5.544s-4.056,5.356-7.83,5.356H108.406c-11.729,0-12.043.485-10.68,12.168.251,2.083.814,2.772,2.913,2.772,12.732-.157,25.557.188,38.195-.423,9.208-.454,14.407-5.027,15.754-12.027C156.623,42.17,154.1,36.548,144.752,31.412Z" transform="translate(42.369 0.111)" fill="#0a0b0a"/>
    <path id="Path_17" data-name="Path 17" d="M142.977,21.416c1,1.566,1.958,3.132,2.9,4.541.2.329.423.642.626.987s.423.673.658,1.018h0v.078h.157v.078h0V28.2h0v.157a.094.094,0,0,1,0,.094v.078h.078l1.3,2,1.143,1.817c.282-.423.611-.924.971-1.566L152,28.9c.423-.658.861-1.347,1.3-2.067l1.331-2.067,1.566-2.427,1.566-2.49H166L145.545,55.069h-8.19l3.617-5.685,1.566-2.412,1.566-2.427,1.456-2.286,1.268-1.973-1.268-1.926-1.738-2.615c-.611-.987-1.268-2.02-1.973-3.132s-1.378-2.161-2.051-3.21l-5.058-7.955Z" transform="translate(76.263 11.235)" fill="#afaeae"/>
    <path id="Path_18" data-name="Path 18" d="M156.41,27.772V20.85h46.338v6.922H176.126V54.5h-6.89V27.772Zm22.942,5.841h23.4v6.922H186.3v7h17.633v6.922H179.352Z" transform="translate(88.528 11.801)" fill="#afaeae"/>
    <path id="Path_19" data-name="Path 19" d="M201.692,55.3a18.9,18.9,0,0,1-4.792-.532,13.639,13.639,0,0,1-3.476-1.394,9.286,9.286,0,0,1-2.365-1.957,11.4,11.4,0,0,1-1.441-2.224,8.438,8.438,0,0,1-.72-2.177,10.659,10.659,0,0,1-.188-1.832h6.89a2.4,2.4,0,0,0,.642,1.738,4.526,4.526,0,0,0,1.566,1.049,7.94,7.94,0,0,0,1.973.517,14.094,14.094,0,0,0,1.879.141,16.178,16.178,0,0,0,1.864-.125,7.735,7.735,0,0,0,1.863-.454,3.633,3.633,0,0,0,1.425-.924,2.271,2.271,0,0,0,.548-1.566v-.11a2.333,2.333,0,0,0-.658-1.566,5.825,5.825,0,0,0-1.456-1.034,10.962,10.962,0,0,0-1.785-.658l-1.566-.407a25.651,25.651,0,0,1-6.17-1.691,12.277,12.277,0,0,1-3.774-2.506,7.72,7.72,0,0,1-1.942-3.132,11.76,11.76,0,0,1-.564-3.68,9.928,9.928,0,0,1,.861-4.322,9.4,9.4,0,0,1,4.917-4.7,15.941,15.941,0,0,1,2.787-.908,23.7,23.7,0,0,1,3.022-.376,13.264,13.264,0,0,1,4.244.611,11.776,11.776,0,0,1,3.132,1.566,9.74,9.74,0,0,1,2.177,2.036,15.657,15.657,0,0,1,1.425,2.177,11.854,11.854,0,0,1,.8,1.895c.172.564.3.955.36,1.19l-6.749,1.566a5.058,5.058,0,0,0-1.707-2.9,5.653,5.653,0,0,0-3.6-1.206h-.235a6.264,6.264,0,0,0-2.38.376,3.931,3.931,0,0,0-1.394.924,2.694,2.694,0,0,0-.673,1.112,3.837,3.837,0,0,0-.172,1,4.7,4.7,0,0,0,.11.861,2.286,2.286,0,0,0,.517,1.1,3.132,3.132,0,0,0,1.472,1.034,13.266,13.266,0,0,0,1.77.548,34,34,0,0,1,6.64,1.785,15.205,15.205,0,0,1,4.322,2.38,8.535,8.535,0,0,1,2.349,3.21,10.07,10.07,0,0,1,.7,3.79,9.772,9.772,0,0,1-.72,3.743,8.332,8.332,0,0,1-2.255,3.132,11.557,11.557,0,0,1-3.9,2.1A18.323,18.323,0,0,1,201.692,55.3Z" transform="translate(106.81 11.585)" fill="#afaeae"/>
    <path id="Path_20" data-name="Path 20" d="M150.856,33.032c7.157-4.7,9.4-10.962,7.36-19.935-1.362-5.9-5.935-9.553-13.53-10.524a51.506,51.506,0,0,0-6.749-.626c-17.226,0-34.593.282-51.678-.125-7.517-.188-4.792,4.7-5.2,8.206-.485,4.025-.219,6.765,5.559,6.593,15.19-.485,30.38-.141,45.586-.188,3.79,0,6.609,1.159,6.671,5.371s-2.568,5.591-6.452,5.544H112.629c-9.224,0-9.02,0-8.895,9.224,0,3.132.908,4.228,4.181,4.15,8.425-.2,16.85,0,25.26-.11,4.072,0,7.72.407,7.626,5.559s-3.993,5.356-7.83,5.356H114.493c-11.7,0-12.027.5-10.68,12.2.251,2.067.814,2.819,2.913,2.8,12.747-.157,25.573.188,38.195-.438,9.208-.454,14.407-5.027,15.785-12.027C162.71,43.806,160.2,38.122,150.856,33.032Z" transform="translate(45.787 1.028)" fill="#aeaeae" opacity="0.82"/>
  </g>
</svg>
