<svg xmlns="http://www.w3.org/2000/svg" width="493.158" height="148.377" viewBox="0 0 493.158 148.377">
  <g id="logo" transform="translate(-424.773 -466)">
    <g id="Group_7659" data-name="Group 7659" transform="translate(573.467 474)">
      <path id="Path_26821" data-name="Path 26821" d="M11.11,0h8.525V-28.655H29.37v-7.15h-28v7.15H11.11ZM34.87,0h8.58V-12.6h4.18L54.23,0H63.8L55.825-14.19c3.685-1.76,6.16-5.115,6.16-10.34,0-8.635-6.38-11.275-13.97-11.275H34.87Zm8.58-19.36v-9.68h3.905c4.07,0,6.27,1.1,6.27,4.51s-2.2,5.17-6.27,5.17Zm33.605,1.43c.935-3.52,1.87-7.755,2.75-11.5h.22c.935,3.74,1.87,7.975,2.805,11.5l.77,3.08H76.285ZM63.8,0h8.745l2.09-8.25H85.25L87.34,0h9.02L85.195-35.805H74.965Zm50.875.66A14.886,14.886,0,0,0,126.28-4.62l-4.455-5.06a9.1,9.1,0,0,1-6.875,2.97c-5.005,0-8.36-4.125-8.36-11.275,0-6.93,3.795-11.11,8.525-11.11a8.42,8.42,0,0,1,6.16,2.475l4.51-5.17a14.99,14.99,0,0,0-10.89-4.675c-9.02,0-17.05,6.875-17.05,18.81C97.845-5.555,105.545.66,114.675.66ZM131.56,0h23.21V-7.15H140.14V-14.8h12.045v-7.15H140.14v-6.71h14.08v-7.15H131.56ZM170.5-17.93c.935-3.52,1.87-7.755,2.75-11.5h.22c.935,3.74,1.87,7.975,2.8,11.5l.77,3.08H169.73ZM157.245,0h8.745l2.09-8.25H178.7L180.785,0h9.02L178.64-35.805H168.41ZM193.49,0h13.53c7.755,0,14.025-3.245,14.025-10.56a8.164,8.164,0,0,0-6.435-8.415v-.22c2.915-1.1,4.675-4.565,4.675-7.7,0-6.93-5.885-8.91-13.31-8.91H193.49Zm8.58-21.56v-7.7h3.63c3.52,0,5.225,1.045,5.225,3.63,0,2.475-1.6,4.07-5.28,4.07Zm0,15.015V-15.29h4.29c4.235,0,6.325,1.155,6.325,4.18s-2.145,4.565-6.325,4.565ZM226.875,0h8.58V-35.805h-8.58ZM243.7,0H266.2V-7.15H252.285V-35.805H243.7Zm28.71,0h8.58V-35.805h-8.58ZM296.23,0h8.525V-28.655h9.735v-7.15H286.495v7.15h9.735Zm28.93,0h8.525V-12.65l10.78-23.155h-8.91L332.53-27.83c-.935,2.7-1.98,5.17-2.97,7.975h-.22c-.99-2.805-1.87-5.28-2.8-7.975l-3.025-7.975h-9.13L325.16-12.65Z" transform="translate(0 109.502)" fill="#002656"/>
      <path id="Path_26820" data-name="Path 26820" d="M2.584-11.074l.026-.765a34.3,34.3,0,0,1,3.981-14.9A31.258,31.258,0,0,1,15.161-37.1Q20.276-41,25.128-41a7.189,7.189,0,0,1,5.827,2.558,8.277,8.277,0,0,1,1.819,5.432,12.538,12.538,0,0,1-2.821,7.594,10.51,10.51,0,0,1-3.48,3.111,3.416,3.416,0,0,1-1.622.475,3.052,3.052,0,0,1-1.384-.316,4.223,4.223,0,0,1-1.107-.791,2.885,2.885,0,0,1-.976-1.846,1.334,1.334,0,0,1,.422-1.134,17.571,17.571,0,0,0,5.88-6.407,5.711,5.711,0,0,0,.606-2.479q0-2.558-2.426-2.558-3.8,0-7.831,4.14a31.875,31.875,0,0,0-6.328,9.6,29.155,29.155,0,0,0-2.821,10.89l-.026,1q0,5.933,2.5,7.778a3.527,3.527,0,0,0,2.149.659,8.553,8.553,0,0,0,2.36-.316,12.842,12.842,0,0,0,2.215-.87,28.825,28.825,0,0,0,4.588-3.19.841.841,0,0,1,1.4.185,2.711,2.711,0,0,1,.475,1.582,3.605,3.605,0,0,1-.409,2.043,7.173,7.173,0,0,1-1.4,1.279,12.551,12.551,0,0,1-2.413,1.371A15.963,15.963,0,0,1,13.816.264,14.127,14.127,0,0,1,8.675-.514a8.935,8.935,0,0,1-3.3-2.228Q2.584-5.8,2.584-11.074ZM49.755-22.307q-1.45,0-5.194,4.43l-2.188,2.689L38.153-9.677q-1.529,2.9-2.4,4.825L34.33-1.793a7.569,7.569,0,0,1-.962,1.6A1.4,1.4,0,0,1,32.26.264a3.688,3.688,0,0,1-1.345-.25,3.983,3.983,0,0,1-1.121-.646,2.413,2.413,0,0,1-1-1.846,4.792,4.792,0,0,1,.554-1.556L30.4-6.17A139.061,139.061,0,0,0,39.34-31.9,98.151,98.151,0,0,0,41.476-42.24q.29-2.215,2.162-2.215a3.3,3.3,0,0,1,2,.58,2.956,2.956,0,0,1,1.477,2.426,19.247,19.247,0,0,1-.369,2.9q-.316,1.608-.817,3.494T44.8-31.087q-1.74,5.3-2.584,7.646-2.584,7.093-3.19,8.306.4-.475,1.028-1.292,4.8-6.3,5.933-7.528a21.687,21.687,0,0,1,1.925-1.885,6.182,6.182,0,0,1,4.219-1.45,4.3,4.3,0,0,1,3.349,1.4,4.354,4.354,0,0,1,1.187,2.94,10.719,10.719,0,0,1-.356,2.874,21.83,21.83,0,0,1-.91,2.6q-.554,1.318-1.213,2.716L52.866-12a17.668,17.668,0,0,0-1.846,6.223q0,1.424,1.16,1.424A4.294,4.294,0,0,0,54.2-4.825,3.7,3.7,0,0,1,55.371-5.3a.489.489,0,0,1,.554.554A4.629,4.629,0,0,1,53.552-.817,5.537,5.537,0,0,1,50.572.264a7.574,7.574,0,0,1-2.228-.277,4.09,4.09,0,0,1-1.569-.91A5.4,5.4,0,0,1,45.22-5.115,19.8,19.8,0,0,1,47.171-12.6l2.848-6.064a6.668,6.668,0,0,0,.817-2.663Q50.836-22.307,49.755-22.307Zm31.3,15.293q0,2.426,1.714,2.426a4.581,4.581,0,0,0,1.964-.369,3.229,3.229,0,0,1,1.042-.369q.554,0,.554.58a4.7,4.7,0,0,1-2.373,3.9A5.552,5.552,0,0,1,78.838,0a4.282,4.282,0,0,1-2.531-2.61,5.267,5.267,0,0,1-.4-1.872,17.1,17.1,0,0,1,.264-2.9q-2.452,5.01-6.091,6.908A6.706,6.706,0,0,1,67,.264a5.706,5.706,0,0,1-2.834-.672,6.232,6.232,0,0,1-2.043-1.859A9.921,9.921,0,0,1,60.565-8.49a19.514,19.514,0,0,1,2.769-9.2A21.508,21.508,0,0,1,69.4-24.574a11.757,11.757,0,0,1,6.855-2.716A5.934,5.934,0,0,1,81.4-24.363q1.819-2.927,3.217-2.927a3.852,3.852,0,0,1,2.268.554q1.45,1.055,1.028,1.846-6.618,13.553-6.8,16.875A9.082,9.082,0,0,0,81.053-7.014Zm-14.634.105q0,3.164,2.03,3.164,1.556,0,3.823-2.637a36.161,36.161,0,0,0,5.88-10.441,37.6,37.6,0,0,0,1.371-4.113,3.089,3.089,0,0,0-1.5-2.637,2.748,2.748,0,0,0-1.411-.29,4.713,4.713,0,0,0-2.188.686A10.59,10.59,0,0,0,72-21.3,16.188,16.188,0,0,0,69.807-18.5a22.361,22.361,0,0,0-1.78,3.52A21.782,21.782,0,0,0,66.419-6.908Zm37.758-26.565a4.852,4.852,0,0,1-1.318,1A4.439,4.439,0,0,1,101.3-32a2.8,2.8,0,0,1-1.542-.25,3.641,3.641,0,0,1-1.252-.976,4.088,4.088,0,0,1-1.134-2.663,3.758,3.758,0,0,1,.435-2.017A3.61,3.61,0,0,1,98.9-39a4.444,4.444,0,0,1,2.386-.817,7.406,7.406,0,0,1,1.74.158,3.49,3.49,0,0,1,1.147.527,2.523,2.523,0,0,1,1.292,2.123,5.308,5.308,0,0,1-.356,2.083A4.958,4.958,0,0,1,104.177-33.473ZM98.771-4.931q.686,0,.686.9a3.839,3.839,0,0,1-1.081,2.452A5.307,5.307,0,0,1,94.131.264a4.194,4.194,0,0,1-4.192-2.479,4.8,4.8,0,0,1-.422-2.109,10.076,10.076,0,0,1,.435-2.755q.435-1.516,1.081-3.19t1.411-3.388l1.4-3.322a17.323,17.323,0,0,0,1.529-4.9,3.235,3.235,0,0,0-.25-1.569,2.236,2.236,0,0,0-.541-.593l-.527-.369a.734.734,0,0,1-.264-.646,1.355,1.355,0,0,1,.356-.883,3.228,3.228,0,0,1,.936-.738,6.005,6.005,0,0,1,2.769-.606q3.876,0,3.876,2.03a14.63,14.63,0,0,1-1.239,5.418q-1.239,3.045-2.109,4.917l-1.582,3.639a17.119,17.119,0,0,0-1.74,5.774,1.025,1.025,0,0,0,1.16,1.16,3.96,3.96,0,0,0,1.714-.29A2.232,2.232,0,0,1,98.771-4.931ZM124.4-22.307q-.817,0-2.32,1.569t-2.61,2.861l-2.241,2.689L112.9-9.677q-1.529,2.9-2.4,4.825l-1.424,3.059a7.569,7.569,0,0,1-.962,1.6,1.4,1.4,0,0,1-1.107.461,3.688,3.688,0,0,1-1.345-.25,3.983,3.983,0,0,1-1.121-.646,2.413,2.413,0,0,1-1-1.846,4.645,4.645,0,0,1,.58-1.556l1-2.136q.475-.949,1.107-2.426l1.477-3.612q3.111-7.778,3.111-10.046a2.076,2.076,0,0,0-.791-1.793l-.527-.369a.734.734,0,0,1-.264-.646,1.355,1.355,0,0,1,.356-.883,3.228,3.228,0,0,1,.936-.738,5.2,5.2,0,0,1,2.386-.606,5.182,5.182,0,0,1,1.859.264,3.249,3.249,0,0,1,1.107.712,2.666,2.666,0,0,1,.976,1.925,8.4,8.4,0,0,1-.25,2.017,19.588,19.588,0,0,1-.633,2.057q-.382,1.042-.8,2.043t-.765,1.74L113.88-15.4q-.211.422-.105.264,2.927-4.061,3.85-5.221l1.846-2.215a18.018,18.018,0,0,1,3.19-3.138,7.473,7.473,0,0,1,3.691-1.582,6.551,6.551,0,0,1,2.268.343,4.814,4.814,0,0,1,1.608.976,4.469,4.469,0,0,1,1.45,3.428,11.255,11.255,0,0,1-.949,4.351q-.949,2.268-1.648,3.678t-1.332,2.861q-1.978,4.4-1.978,6.407,0,.9,1.424.9a4.294,4.294,0,0,0,2.017-.475,3.7,3.7,0,0,1,1.173-.475.489.489,0,0,1,.554.554,4.621,4.621,0,0,1-2.4,3.929A5.414,5.414,0,0,1,125.587.264a7.251,7.251,0,0,1-2.228-.29,4.235,4.235,0,0,1-1.569-.923,4.976,4.976,0,0,1-1.556-3.9,20.691,20.691,0,0,1,1.925-7.646q1.4-3.138,1.978-4.3l.9-1.872a6.668,6.668,0,0,0,.817-2.663Q125.851-22.307,124.4-22.307Z" transform="translate(0.002 53)" fill="#002656"/>
    </g>
    <g id="logo-2" data-name="logo" transform="translate(424.773 466)">
      <path id="Path_2" data-name="Path 2" d="M797.438,210.63c33.668-.166,61.386,27.694,60.886,61.945a61.064,61.064,0,0,1-61.281,60.11c-33.412-.066-60.93-27.4-60.867-60.5C736.242,237.647,763.164,210.6,797.438,210.63Zm9.811,95.341a35.78,35.78,0,0,0,25.969-33.146,36.336,36.336,0,0,0-28.1-36.326c-16.765-3.705-32.178,5.575-37.748,15.647H818.2c-.191.894-.258,1.446-.428,1.963-1.069,3.244-2.246,6.456-3.21,9.731-.459,1.558-1.164,2.186-2.844,2.139-4.271-.119-8.547-.021-12.821-.071a2.437,2.437,0,0,0-2.771,1.979c-2.659,8.486-5.458,16.928-8.191,25.391-1.907,5.905-1.9,5.911-8.13,5.921-1.139,0-2.279-.046-3.417-.012a8.861,8.861,0,0,0-1.506.337,6.171,6.171,0,0,0,.718.822,36.023,36.023,0,0,0,14.914,6.558,2.443,2.443,0,0,0,1.928-1.292c1.121-2.918,2.024-5.919,3-8.89q3.779-11.446,7.548-22.9a2.1,2.1,0,0,1,2.511-1.663q5.111.38,10.244.438c1.628.02,1.749.6,1.315,1.968-2.632,8.272-5.207,16.563-7.8,24.849C808.621,301.486,807.991,303.559,807.249,305.971Zm-4.68,15.987c3.667-.9,6.937-1.517,10.088-2.514a50.277,50.277,0,0,0,30.009-69.583c-11.476-23.771-40-34.916-64.034-25.019-28.6,11.781-40.217,44.723-25.051,71.659,7.015,12.461,17.792,20.29,31.605,23.992,1.686.452,2.571.1,2.977-1.6.466-1.95-1.191-1.569-2.1-1.916-3.248-1.244-6.7-2.084-9.763-3.669-21.747-11.244-31.275-35.57-22.574-58.434,5.479-14.4,15.946-24.077,30.833-28.143,26.988-7.37,52.981,8.917,58.557,36.263,5.069,24.856-12.332,50.319-37.345,54.487C803.328,317.893,802.884,319.279,802.569,321.958Zm-30.461-24.823a6.128,6.128,0,0,0,.576-.943q4.934-14.758,9.849-29.523c.57-1.709-.521-1.73-1.7-1.727-5.622.012-11.246.048-16.867-.013-1.589-.017-2.278.513-2.45,2.147a35.854,35.854,0,0,0,9.025,28.609A20.974,20.974,0,0,0,772.108,297.135Z" transform="translate(-736.176 -210.629)" fill="#002656" fill-rule="evenodd"/>
      <path id="Path_3" data-name="Path 3" d="M792.93,520.657c-.673,3.393-1.28,6.8-2.075,10.167a2.684,2.684,0,0,1-1.589,1.742c-1.985.419-2.37-.087-1.953-2.128.982-4.814,1.986-9.624,2.983-14.434.207-1,.369-2.006,1.8-1.9,1.3.095,2.7-.33,3.3,1.52.9,2.769,1.984,5.477,3,8.206.31.836.648,1.662,1.111,2.844.417-.611.7-.848.751-1.128.57-2.933,1.1-5.874,1.648-8.812.519-2.8.755-2.958,4.054-2.333-.539,2.667-1.07,5.342-1.62,8.012-.561,2.719-1.057,5.457-1.766,8.138a3.061,3.061,0,0,1-1.614,2.006c-1.341.325-2.791.3-3.4-1.584-.947-2.9-2.087-5.743-3.166-8.6-.237-.628-.561-1.224-.844-1.834Z" transform="translate(-765.363 -384.348)" fill="#002656" fill-rule="evenodd"/>
      <path id="Path_4" data-name="Path 4" d="M863.686,532.578c-1.281,0-2.562-.01-3.843,0-1.141.011-1.477-.455-1.225-1.6,1.125-5.141,2.14-10.307,3.325-15.434a2.327,2.327,0,0,1,1.66-1.4,51.507,51.507,0,0,1,6.4.01,6.4,6.4,0,0,1,6.409,6.406c.37,6.462-3.127,12.584-11.23,12.011-.5-.035-1,0-1.494,0Zm1.8-3.29a6.947,6.947,0,0,0,6.812-9.029c-.707-2.133-2.116-2.781-5.108-2.848-2.232-.051-2.018,1.621-2.33,2.874-.533,2.135-.89,4.314-1.346,6.469C862.987,529.244,863.03,529.312,865.488,529.288Z" transform="translate(-806.223 -384.324)" fill="#002656" fill-rule="evenodd"/>
      <path id="Path_5" data-name="Path 5" d="M970.421,532.605c3.611-6.224,6.9-11.865,10.157-17.523.965-1.676,2.546-1,3.845-.922.439.025,1.045,1.21,1.173,1.935.855,4.839,1.643,9.69,2.329,14.556.083.588-.509,1.778-.9,1.826-1.053.131-2.828.674-2.794-1.215.053-2.881-1.6-2.809-3.712-2.921-2.49-.132-4.212.418-5.2,2.9C974.423,533.488,972.469,532.254,970.421,532.605Zm7.983-7.119c1.649,0,2.759.072,3.85-.04.368-.038.992-.554.981-.829-.082-1.917-.3-3.826-.474-5.739l-.7-.119Z" transform="translate(-870.27 -384.272)" fill="#002656" fill-rule="evenodd"/>
      <path id="Path_6" data-name="Path 6" d="M931.912,532.579c-1.425.267-1.949-.228-1.646-1.617,1.106-5.075,2.266-10.141,3.231-15.243.425-2.245,2.008-1.593,3.274-1.533.229.011.672,1.469.54,2.169-.877,4.685-1.9,9.343-2.84,14.016C934.174,531.847,933.728,533.056,931.912,532.579Z" transform="translate(-847.236 -384.325)" fill="#002656" fill-rule="evenodd"/>
      <path id="Path_7" data-name="Path 7" d="M747.345,514.109c1.562-.2,2.165.2,1.741,2-1.151,4.9-2.2,9.829-3.07,14.784-.37,2.1-1.741,1.739-3,1.655-1.652-.109-1.066-1.272-.871-2.22.985-4.792,1.982-9.582,2.926-14.382C745.324,514.635,745.853,513.824,747.345,514.109Z" transform="translate(-739.441 -384.324)" fill="#002656" fill-rule="evenodd"/>
    </g>
  </g>
</svg>
